<svg width="24" height="24" viewBox="0 0 24 24" fill="none" xmlns="http://www.w3.org/2000/svg">
<path fill-rule="evenodd" clip-rule="evenodd" d="M17.5303 3.46967C17.3897 3.32902 17.1989 3.25 17 3.25C16.8011 3.25 16.6103 3.32902 16.4697 3.46967L14.4697 5.46967L3.46967 16.4697C3.32902 16.6103 3.25 16.8011 3.25 17V20C3.25 20.4142 3.58579 20.75 4 20.75H7C7.19891 20.75 7.38968 20.671 7.53033 20.5303L18.5296 9.53104C18.5299 9.5308 18.5301 9.53057 18.5303 9.53033L20.5303 7.53033C20.8232 7.23744 20.8232 6.76256 20.5303 6.46967L17.5303 3.46967ZM16.9393 9L15 7.06066L4.75 17.3107V19.25H6.68934L16.9393 9ZM18 7.93934L18.9393 7L17 5.06066L16.0607 6L18 7.93934Z" fill="black"/>
</svg>
